<svg width="26" height="26" viewBox="0 0 26 26" fill="none" xmlns="http://www.w3.org/2000/svg">
<path d="M7.58335 22.75H18.4167M10.8334 8.39583C10.8336 8.25152 10.8723 8.10989 10.9455 7.98549C11.0186 7.86109 11.1236 7.75842 11.2496 7.68804C11.3756 7.61766 11.518 7.5821 11.6623 7.58502C11.8066 7.58794 11.9475 7.62924 12.0705 7.70467L16.0399 10.1411C16.1582 10.2138 16.2558 10.3156 16.3236 10.4368C16.3914 10.558 16.427 10.6945 16.427 10.8333C16.427 10.9722 16.3914 11.1087 16.3236 11.2299C16.2558 11.3511 16.1582 11.4529 16.0399 11.5256L12.0705 13.9631C11.9473 14.0386 11.8062 14.0799 11.6618 14.0827C11.5173 14.0856 11.3747 14.0498 11.2486 13.9792C11.1226 13.9085 11.0177 13.8056 10.9447 13.6809C10.8717 13.5562 10.8332 13.4142 10.8334 13.2697V8.39583ZM4.33335 3.25H21.6667C22.8633 3.25 23.8334 4.22005 23.8334 5.41667V16.25C23.8334 17.4466 22.8633 18.4167 21.6667 18.4167H4.33335C3.13674 18.4167 2.16669 17.4466 2.16669 16.25V5.41667C2.16669 4.22005 3.13674 3.25 4.33335 3.25Z" stroke="#E16428" stroke-width="2" stroke-linecap="round" stroke-linejoin="round"/>
</svg>
