<svg width="158" height="26" viewBox="0 0 158 26" fill="none" xmlns="http://www.w3.org/2000/svg">
<g clip-path="url(#clip0_127_683)">
<path d="M45.88 17.16H40.06L39.06 20H36.68L41.66 6.07998H44.3L49.28 20H46.88L45.88 17.16ZM45.24 15.3L42.98 8.83998L40.7 15.3H45.24Z" fill="#E16428"/>
<path d="M57.0053 8.79998C57.872 8.79998 58.6453 8.97998 59.3253 9.33998C60.0186 9.69998 60.5586 10.2333 60.9453 10.94C61.332 11.6466 61.5253 12.5 61.5253 13.5V20H59.2653V13.84C59.2653 12.8533 59.0186 12.1 58.5253 11.58C58.032 11.0466 57.3586 10.78 56.5053 10.78C55.652 10.78 54.972 11.0466 54.4653 11.58C53.972 12.1 53.7253 12.8533 53.7253 13.84V20H51.4453V8.97998H53.7253V10.24C54.0986 9.78664 54.572 9.43331 55.1453 9.17998C55.732 8.92664 56.352 8.79998 57.0053 8.79998Z" fill="#E16428"/>
<path d="M65.5936 7.51998C65.1803 7.51998 64.8336 7.37998 64.5536 7.09998C64.2736 6.81998 64.1336 6.47331 64.1336 6.05998C64.1336 5.64664 64.2736 5.29998 64.5536 5.01998C64.8336 4.73998 65.1803 4.59998 65.5936 4.59998C65.9936 4.59998 66.3336 4.73998 66.6136 5.01998C66.8936 5.29998 67.0336 5.64664 67.0336 6.05998C67.0336 6.47331 66.8936 6.81998 66.6136 7.09998C66.3336 7.37998 65.9936 7.51998 65.5936 7.51998ZM66.7136 8.97998V20H64.4336V8.97998H66.7136Z" fill="#E16428"/>
<path d="M83.047 8.79998C83.9137 8.79998 84.687 8.97998 85.367 9.33998C86.0604 9.69998 86.6004 10.2333 86.987 10.94C87.387 11.6466 87.587 12.5 87.587 13.5V20H85.327V13.84C85.327 12.8533 85.0804 12.1 84.587 11.58C84.0937 11.0466 83.4204 10.78 82.567 10.78C81.7137 10.78 81.0337 11.0466 80.527 11.58C80.0337 12.1 79.787 12.8533 79.787 13.84V20H77.527V13.84C77.527 12.8533 77.2804 12.1 76.787 11.58C76.2937 11.0466 75.6204 10.78 74.767 10.78C73.9137 10.78 73.2337 11.0466 72.727 11.58C72.2337 12.1 71.987 12.8533 71.987 13.84V20H69.707V8.97998H71.987V10.24C72.3604 9.78664 72.8337 9.43331 73.407 9.17998C73.9804 8.92664 74.5937 8.79998 75.247 8.79998C76.127 8.79998 76.9137 8.98664 77.607 9.35998C78.3004 9.73331 78.8337 10.2733 79.207 10.98C79.5404 10.3133 80.0604 9.78664 80.767 9.39998C81.4737 8.99998 82.2337 8.79998 83.047 8.79998Z" fill="#E16428"/>
<path d="M100.588 14.22C100.588 14.6333 100.562 15.0066 100.508 15.34H92.0883C92.1549 16.22 92.4816 16.9266 93.0683 17.46C93.6549 17.9933 94.3749 18.26 95.2283 18.26C96.4549 18.26 97.3216 17.7466 97.8283 16.72H100.288C99.9549 17.7333 99.3483 18.5666 98.4683 19.22C97.6016 19.86 96.5216 20.18 95.2283 20.18C94.1749 20.18 93.2283 19.9466 92.3883 19.48C91.5616 19 90.9083 18.3333 90.4283 17.48C89.9616 16.6133 89.7283 15.6133 89.7283 14.48C89.7283 13.3466 89.9549 12.3533 90.4083 11.5C90.8749 10.6333 91.5216 9.96664 92.3483 9.49998C93.1883 9.03331 94.1483 8.79998 95.2283 8.79998C96.2683 8.79998 97.1949 9.02664 98.0083 9.47998C98.8216 9.93331 99.4549 10.5733 99.9083 11.4C100.362 12.2133 100.588 13.1533 100.588 14.22ZM98.2083 13.5C98.1949 12.66 97.8949 11.9866 97.3083 11.48C96.7216 10.9733 95.9949 10.72 95.1283 10.72C94.3416 10.72 93.6683 10.9733 93.1083 11.48C92.5483 11.9733 92.2149 12.6466 92.1083 13.5H98.2083Z" fill="#E16428"/>
<path d="M114.812 6.09998L109.592 20H106.952L101.712 6.09998H104.152L108.272 17.66L112.412 6.09998H114.812Z" fill="#E16428"/>
<path d="M126.819 14.22C126.819 14.6333 126.792 15.0066 126.739 15.34H118.319C118.385 16.22 118.712 16.9266 119.299 17.46C119.885 17.9933 120.605 18.26 121.459 18.26C122.685 18.26 123.552 17.7466 124.059 16.72H126.519C126.185 17.7333 125.579 18.5666 124.699 19.22C123.832 19.86 122.752 20.18 121.459 20.18C120.405 20.18 119.459 19.9466 118.619 19.48C117.792 19 117.139 18.3333 116.659 17.48C116.192 16.6133 115.959 15.6133 115.959 14.48C115.959 13.3466 116.185 12.3533 116.639 11.5C117.105 10.6333 117.752 9.96664 118.579 9.49998C119.419 9.03331 120.379 8.79998 121.459 8.79998C122.499 8.79998 123.425 9.02664 124.239 9.47998C125.052 9.93331 125.685 10.5733 126.139 11.4C126.592 12.2133 126.819 13.1533 126.819 14.22ZM124.439 13.5C124.425 12.66 124.125 11.9866 123.539 11.48C122.952 10.9733 122.225 10.72 121.359 10.72C120.572 10.72 119.899 10.9733 119.339 11.48C118.779 11.9733 118.445 12.6466 118.339 13.5H124.439Z" fill="#E16428"/>
<path d="M131.342 10.58C131.676 10.02 132.116 9.58664 132.662 9.27998C133.222 8.95998 133.882 8.79998 134.642 8.79998V11.16H134.062C133.169 11.16 132.489 11.3866 132.022 11.84C131.569 12.2933 131.342 13.08 131.342 14.2V20H129.062V8.97998H131.342V10.58Z" fill="#E16428"/>
<path d="M140.738 20.18C139.872 20.18 139.092 20.0266 138.398 19.72C137.718 19.4 137.178 18.9733 136.778 18.44C136.378 17.8933 136.165 17.2866 136.138 16.62H138.498C138.538 17.0866 138.758 17.48 139.158 17.8C139.572 18.1066 140.085 18.26 140.698 18.26C141.338 18.26 141.832 18.14 142.178 17.9C142.538 17.6466 142.718 17.3266 142.718 16.94C142.718 16.5266 142.518 16.22 142.118 16.02C141.732 15.82 141.112 15.6 140.258 15.36C139.432 15.1333 138.758 14.9133 138.238 14.7C137.718 14.4866 137.265 14.16 136.878 13.72C136.505 13.28 136.318 12.7 136.318 11.98C136.318 11.3933 136.492 10.86 136.838 10.38C137.185 9.88664 137.678 9.49998 138.318 9.21998C138.972 8.93998 139.718 8.79998 140.558 8.79998C141.812 8.79998 142.818 9.11998 143.578 9.75998C144.352 10.3866 144.765 11.2466 144.818 12.34H142.538C142.498 11.8466 142.298 11.4533 141.938 11.16C141.578 10.8666 141.092 10.72 140.478 10.72C139.878 10.72 139.418 10.8333 139.098 11.06C138.778 11.2866 138.618 11.5866 138.618 11.96C138.618 12.2533 138.725 12.5 138.938 12.7C139.152 12.9 139.412 13.06 139.718 13.18C140.025 13.2866 140.478 13.4266 141.078 13.6C141.878 13.8133 142.532 14.0333 143.038 14.26C143.558 14.4733 144.005 14.7933 144.378 15.22C144.752 15.6466 144.945 16.2133 144.958 16.92C144.958 17.5466 144.785 18.1066 144.438 18.6C144.092 19.0933 143.598 19.48 142.958 19.76C142.332 20.04 141.592 20.18 140.738 20.18Z" fill="#E16428"/>
<path d="M157.522 14.22C157.522 14.6333 157.495 15.0066 157.442 15.34H149.022C149.089 16.22 149.415 16.9266 150.002 17.46C150.589 17.9933 151.309 18.26 152.162 18.26C153.389 18.26 154.255 17.7466 154.762 16.72H157.222C156.889 17.7333 156.282 18.5666 155.402 19.22C154.535 19.86 153.455 20.18 152.162 20.18C151.109 20.18 150.162 19.9466 149.322 19.48C148.495 19 147.842 18.3333 147.362 17.48C146.895 16.6133 146.662 15.6133 146.662 14.48C146.662 13.3466 146.889 12.3533 147.342 11.5C147.809 10.6333 148.455 9.96664 149.282 9.49998C150.122 9.03331 151.082 8.79998 152.162 8.79998C153.202 8.79998 154.129 9.02664 154.942 9.47998C155.755 9.93331 156.389 10.5733 156.842 11.4C157.295 12.2133 157.522 13.1533 157.522 14.22ZM155.142 13.5C155.129 12.66 154.829 11.9866 154.242 11.48C153.655 10.9733 152.929 10.72 152.062 10.72C151.275 10.72 150.602 10.9733 150.042 11.48C149.482 11.9733 149.149 12.6466 149.042 13.5H155.142Z" fill="#E16428"/>
<path d="M7.58335 22.75H18.4167M10.8334 8.39583C10.8336 8.25152 10.8723 8.10989 10.9455 7.98549C11.0186 7.86109 11.1236 7.75842 11.2496 7.68804C11.3756 7.61766 11.518 7.5821 11.6623 7.58502C11.8066 7.58794 11.9475 7.62924 12.0705 7.70467L16.0399 10.1411C16.1582 10.2138 16.2558 10.3156 16.3236 10.4368C16.3914 10.558 16.427 10.6945 16.427 10.8333C16.427 10.9722 16.3914 11.1087 16.3236 11.2299C16.2558 11.3511 16.1582 11.4529 16.0399 11.5256L12.0705 13.9631C11.9473 14.0386 11.8062 14.0799 11.6618 14.0827C11.5173 14.0856 11.3747 14.0498 11.2486 13.9792C11.1226 13.9085 11.0177 13.8056 10.9447 13.6809C10.8717 13.5562 10.8332 13.4142 10.8334 13.2697V8.39583ZM4.33335 3.25H21.6667C22.8633 3.25 23.8334 4.22005 23.8334 5.41667V16.25C23.8334 17.4466 22.8633 18.4167 21.6667 18.4167H4.33335C3.13674 18.4167 2.16669 17.4466 2.16669 16.25V5.41667C2.16669 4.22005 3.13674 3.25 4.33335 3.25Z" stroke="#E16428" stroke-width="2" stroke-linecap="round" stroke-linejoin="round"/>
</g>
<defs>
<clipPath id="clip0_127_683">
<rect width="157.522" height="26" fill="white"/>
</clipPath>
</defs>
</svg>
